<svg width="58" height="24" viewBox="0 0 58 24" fill="none" xmlns="http://www.w3.org/2000/svg">
<path d="M1.52832 10.5C0.699893 10.5 0.0283202 11.1716 0.0283203 12C0.0283204 12.8284 0.699893 13.5 1.52832 13.5L1.52832 10.5ZM57.0604 13.0607C57.6462 12.4749 57.6462 11.5251 57.0604 10.9393L47.5144 1.39339C46.9286 0.807608 45.9789 0.807608 45.3931 1.39339C44.8073 1.97918 44.8073 2.92893 45.3931 3.51472L53.8784 12L45.3931 20.4853C44.8073 21.0711 44.8073 22.0208 45.3931 22.6066C45.9789 23.1924 46.9286 23.1924 47.5144 22.6066L57.0604 13.0607ZM1.52832 13.5L55.9997 13.5L55.9997 10.5L1.52832 10.5L1.52832 13.5Z" fill="#0C1B29"/>
</svg>
