<?xml version="1.0" encoding="UTF-8"?>
<svg xmlns="http://www.w3.org/2000/svg" version="1.1" viewBox="0 0 988.56 220.43">
  <!-- Generator: Adobe Illustrator 29.5.0, SVG Export Plug-In . SVG Version: 2.1.0 Build 137)  -->
  <defs>
    <style>
      .st0 {
        fill: #fc0;
      }

      .st1, .st2 {
        fill: #039;
      }

      .st3 {
        fill: #fff;
      }

      .st2 {
        font-family: Arial-BoldMT, Arial;
        font-size: 65px;
        font-weight: 700;
      }

      .st4 {
        fill: #ccffd9;
      }

      .st5 {
        display: none;
      }
    </style>
  </defs>
  <g id="Layer_1">
    <rect class="st3" x="10.03" y="10.04" width="294.95" height="200.28"/>
    <path class="st3" d="M157.5,112.08"/>
    <rect class="st1" x="15.7" y="15.54" width="283.6" height="189.07"/>
    <path class="st1" d="M157.5,110.08"/>
    <polyline class="st0" points="151.46 56.73 157.44 52.37 163.43 56.73 161.15 49.67 167.23 45.3 159.74 45.3 157.44 38.15 155.15 45.31 147.66 45.3 153.74 49.67 151.46 56.73"/>
    <polyline class="st0" points="120.49 65.05 126.47 60.69 132.46 65.05 130.18 57.99 136.26 53.62 128.76 53.62 126.47 46.47 124.18 53.63 116.69 53.62 122.76 57.99 120.49 65.05"/>
    <polyline class="st0" points="103.81 69.18 101.52 76.34 94.03 76.33 100.11 80.7 97.83 87.76 103.81 83.4 109.8 87.76 107.52 80.7 113.6 76.33 106.11 76.33 103.81 69.18"/>
    <polyline class="st0" points="95.5 114.33 101.48 118.69 99.21 111.63 105.28 107.26 97.8 107.26 95.5 100.11 93.21 107.28 85.72 107.26 91.8 111.63 89.52 118.69 95.5 114.33"/>
    <polyline class="st0" points="106.11 138.29 103.81 131.13 101.52 138.29 94.03 138.29 100.11 142.65 97.83 149.72 103.81 145.34 109.8 149.72 107.52 142.65 113.6 138.29 106.11 138.29"/>
    <polyline class="st0" points="128.81 160.99 126.52 153.84 124.23 161 116.74 160.99 122.81 165.36 120.54 172.42 126.52 168.05 132.5 172.42 130.23 165.36 136.3 160.99 128.81 160.99"/>
    <polyline class="st0" points="159.74 169.22 157.45 162.06 155.16 169.22 147.67 169.22 153.74 173.58 151.47 180.65 157.45 176.28 163.43 180.65 161.15 173.58 167.23 169.22 159.74 169.22"/>
    <polyline class="st0" points="190.67 160.99 188.38 153.84 186.08 161 178.6 160.99 184.67 165.36 182.4 172.42 188.38 168.05 194.37 172.42 192.08 165.36 198.16 160.99 190.67 160.99"/>
    <polyline class="st0" points="213.38 138.29 211.08 131.13 208.79 138.29 201.3 138.29 207.38 142.65 205.1 149.72 211.08 145.34 217.07 149.72 214.79 142.65 220.87 138.29 213.38 138.29"/>
    <polyline class="st0" points="229.09 107.18 221.6 107.18 219.3 100.02 217.01 107.19 209.52 107.18 215.6 111.54 213.33 118.61 219.3 114.23 225.29 118.61 223.01 111.54 229.09 107.18"/>
    <polyline class="st0" points="205.1 87.67 211.08 83.3 217.07 87.67 214.79 80.61 220.87 76.25 213.38 76.25 211.08 69.09 208.79 76.26 201.3 76.25 207.38 80.61 205.1 87.67"/>
    <polyline class="st0" points="188.47 46.47 186.18 53.64 178.69 53.62 184.76 58 182.48 65.06 188.48 60.69 194.45 65.06 192.18 58 198.26 53.62 190.76 53.62 188.47 46.47"/>
    <text class="st2" transform="translate(335.54 86.71)"><tspan x="0" y="0">Co-funded by</tspan><tspan x="0" y="78">the European Union</tspan></text>
  </g>
  <g id="Layer_2" class="st5">
    <rect class="st4" x="299.31" y="97.2" width="40.98" height="24.63"/>
    <rect class="st4" x="947.87" y="97.2" width="40.98" height="24.63"/>
    <rect class="st4" x=".05" y="104.69" width="10" height="10"/>
    <rect class="st4" x="355.51" y="0" width="10" height="10"/>
    <rect class="st4" x="10.04" y="210.36" width="10" height="10"/>
  </g>
</svg>